<svg viewBox="0 0 200 200" preserveAspectRatio="xMidYMid meet" height="200" width="200" xmlns="http://www.w3.org/2000/svg" xmlns:xlink="http://www.w3.org/1999/xlink" version="1.1" x="0px" y="0px" enable-background="new 0 0 200 200" xml:space="preserve">
	<rect x="82.833" y="31.855" width="67.469" height="6.134">
	</rect>
	<rect x="82.833" y="44.123" width="21.468" height="6.134">
	</rect>
	<rect x="46.032" y="31.855" width="21.468" height="21.468">
	</rect>
	<rect x="82.833" y="145.326" width="67.469" height="6.134">
	</rect>
	<rect x="82.833" y="157.594" width="21.468" height="6.134">
	</rect>
	<rect x="46.032" y="145.326" width="21.468" height="21.468">
	</rect>
	<path d="M168.429,7H30.887C24.559,7,19,12.452,19,18.783v160.461C19,185.575,24.559,191,30.887,191h137.542  c6.327,0,11.571-5.425,11.571-11.756V18.783C180,12.452,174.756,7,168.429,7z M168,19v44H31V19H168z M83,95v-6h67v6H83z M104,101v6  H83v-6H104z M67,89v21H46V89H67z M31,179v-46h137v46H31z">
	</path>
</svg>
